<svg width="50" height="50" viewBox="0 0 50 50" fill="none" xmlns="http://www.w3.org/2000/svg">
<path d="M37.5 27.825V37.0675H32.1425V28.4425C32.1425 26.2775 31.3675 24.8 29.4275 24.8C27.9475 24.8 27.065 25.795 26.6775 26.76C26.5375 27.105 26.5 27.585 26.5 28.065V37.0675H21.14C21.14 37.0675 21.2125 22.4625 21.14 20.95H26.5V23.2325L26.465 23.285H26.5V23.2325C27.2125 22.1325 28.4825 20.57 31.33 20.57C34.855 20.57 37.5 22.875 37.5 27.825ZM15.5325 13.1775C13.7 13.1775 12.5 14.3825 12.5 15.9625C12.5 17.5125 13.665 18.75 15.4625 18.75H15.4975C17.3675 18.75 18.53 17.51 18.53 15.9625C18.495 14.3825 17.3675 13.1775 15.5325 13.1775ZM12.8175 37.0675H18.1775V20.95H12.8175V37.0675Z" fill="black"/>
<path d="M25 45C30.3043 45 35.3914 42.8929 39.1421 39.1421C42.8929 35.3914 45 30.3043 45 25C45 19.6957 42.8929 14.6086 39.1421 10.8579C35.3914 7.10714 30.3043 5 25 5C19.6957 5 14.6086 7.10714 10.8579 10.8579C7.10714 14.6086 5 19.6957 5 25C5 30.3043 7.10714 35.3914 10.8579 39.1421C14.6086 42.8929 19.6957 45 25 45ZM25 50C11.1925 50 0 38.8075 0 25C0 11.1925 11.1925 0 25 0C38.8075 0 50 11.1925 50 25C50 38.8075 38.8075 50 25 50Z" fill="black"/>
</svg>
