<svg width="50" height="50" viewBox="0 0 50 50" fill="none" xmlns="http://www.w3.org/2000/svg">
<path d="M25 45C30.3043 45 35.3914 42.8929 39.1421 39.1421C42.8929 35.3914 45 30.3043 45 25C45 19.6957 42.8929 14.6086 39.1421 10.8579C35.3914 7.10714 30.3043 5 25 5C19.6957 5 14.6086 7.10714 10.8579 10.8579C7.10714 14.6086 5 19.6957 5 25C5 30.3043 7.10714 35.3914 10.8579 39.1421C14.6086 42.8929 19.6957 45 25 45ZM25 50C11.1925 50 0 38.8075 0 25C0 11.1925 11.1925 0 25 0C38.8075 0 50 11.1925 50 25C50 38.8075 38.8075 50 25 50Z" fill="black"/>
<path d="M37.5 17.3675C36.58 17.7675 35.5925 18.0425 34.555 18.1625C35.615 17.5375 36.425 16.5475 36.81 15.37C35.7999 15.9587 34.6978 16.3728 33.55 16.595C33.0672 16.089 32.4864 15.6865 31.8429 15.4123C31.1995 15.1381 30.5069 14.9978 29.8075 15C26.975 15 24.68 17.2625 24.68 20.05C24.68 20.445 24.725 20.83 24.8125 21.2C22.7808 21.1035 20.7915 20.5846 18.9716 19.6764C17.1517 18.7681 15.5411 17.4905 14.2425 15.925C13.7864 16.6928 13.5463 17.5695 13.5475 18.4625C13.5475 20.2125 14.455 21.7625 15.83 22.665C15.0161 22.6395 14.2197 22.4228 13.505 22.0325V22.095C13.5127 23.2687 13.927 24.4034 14.6773 25.3059C15.4276 26.2084 16.4675 26.823 17.62 27.045C16.8634 27.2451 16.0717 27.2741 15.3025 27.13C15.6378 28.1397 16.2792 29.0199 17.1376 29.6485C17.9959 30.277 19.0287 30.6227 20.0925 30.6375C18.2674 32.0439 16.0266 32.8038 13.7225 32.7975C13.31 32.7975 12.9025 32.7725 12.5 32.7275C14.8512 34.2157 17.5774 35.004 20.36 35C29.795 35 34.9525 27.305 34.9525 20.63L34.935 19.975C35.9407 19.2682 36.8098 18.3847 37.5 17.3675Z" fill="black"/>
</svg>
